<svg width="104" height="81" viewBox="0 0 104 81" fill="none" xmlns="http://www.w3.org/2000/svg">
<g filter="url(#filter0_d_0_1)">
<path d="M78.6985 50.0014V36.7004C79.0969 36.302 79.3 35.802 79.3 35.302C79.2961 20.501 67.198 8.39999 52.398 8.39999C37.598 8.39999 25.5 20.502 25.5 35.298C25.5 35.798 25.6993 36.3996 26.1016 36.6964V49.9974C24.3008 50.6966 23 52.3958 23 54.3958V58.8958C23 61.2942 24.8984 63.2942 27.3008 63.4974C27.9024 66.1966 30.3008 68.2982 33.1992 68.2982H33.8984C37.1992 68.2982 39.8984 65.599 39.8984 62.2982V50.9002C39.8984 47.5994 37.1992 44.9002 33.8984 44.9002H33.1992C31.6992 44.9002 30.3984 45.4002 29.3008 46.2986V36.697C29.6992 36.2986 29.9024 35.7986 29.9024 35.2986C29.9024 22.9006 40.0044 12.7986 52.4024 12.7986C64.8004 12.7986 74.9024 22.9006 74.9024 35.2986C74.9024 35.7986 75.1016 36.4002 75.5039 36.697V46.2986C74.5039 45.4002 73.1055 44.9002 71.6055 44.9002H70.9063C67.6055 44.9002 64.9063 47.5994 64.9063 50.9002L64.8985 62.4002C64.8985 65.701 67.5977 68.4002 70.8985 68.4002H71.5977C74.4961 68.4002 76.8985 66.2986 77.4961 63.5994C79.8945 63.4002 81.7969 61.4002 81.7969 58.9978V54.4001C81.7969 52.4001 80.4993 50.7006 78.6985 50.0014ZM27.1985 62.5014C25.3977 62.2006 24.0969 60.7006 24.0969 58.8998V54.3998C24.0969 52.599 25.4953 51.099 27.1985 50.7982V50.8997V62.3997V62.5014ZM27.0969 49.7984V37.0014H28.2961V47.5014C27.7961 48.2006 27.4953 48.8998 27.2961 49.8022C27.1985 49.7983 27.1985 49.7984 27.0969 49.7984ZM33.1985 46.0015H33.8977C36.5969 46.0015 38.8977 48.2007 38.8977 51.0015V62.3995C38.8977 65.0987 36.6985 67.3995 33.8977 67.3995H33.1985C30.4993 67.3995 28.1985 65.2003 28.1985 62.3995V50.8995C28.1985 49.7003 28.597 48.7003 29.3001 47.7979C30.1986 46.7002 31.597 46.0015 33.1985 46.0015ZM52.3975 11.7005C39.3975 11.7005 28.7955 22.3025 28.7955 35.3025C28.7955 35.6033 28.694 35.8025 28.4947 36.0017H26.7955C26.5963 35.8025 26.4948 35.6033 26.4948 35.3025C26.5963 21.0015 38.1978 9.40049 52.3968 9.40049C66.5958 9.40049 78.1978 21.0025 78.1978 35.2015C78.1978 35.5023 78.0962 35.7015 77.897 35.9007H76.1978C75.9986 35.7015 75.897 35.5023 75.897 35.2015C75.9986 22.2995 65.397 11.7015 52.397 11.7015L52.3975 11.7005ZM76.5965 62.3995C76.5965 65.0987 74.3973 67.3995 71.5965 67.3995H70.8973C68.1981 67.3995 65.8973 65.2003 65.8973 62.3995V50.8995C65.8973 48.2003 68.0965 45.8995 70.8973 45.8995H71.5965C73.1981 45.8995 74.5965 46.7003 75.4949 47.7979C76.1941 48.5987 76.5965 49.6963 76.5965 50.8995V62.3995ZM76.4989 47.5015V37.0015H77.6981V49.7005H77.4988C77.2957 48.8997 76.9989 48.2007 76.4989 47.5015ZM80.6981 58.8995C80.6981 60.7003 79.2997 62.2003 77.5965 62.5011V62.3995V50.8995V50.798C79.3973 51.0988 80.6981 52.5988 80.6981 54.3996V58.8995Z" fill="white"/>
<path d="M52.3984 8.1998C67.3088 8.20001 79.4961 20.3911 79.5 35.3023C79.4999 35.8311 79.293 36.3532 78.8984 36.7769V49.8697C80.7018 50.6258 81.997 52.358 81.9971 54.4V58.9977C81.9971 61.4595 80.0866 63.5089 77.6562 63.7828C76.9885 66.4999 74.545 68.6002 71.5977 68.6002H70.8984C67.4872 68.6002 64.6982 65.8112 64.6982 62.4L64.7061 50.9C64.7062 47.4888 67.4951 44.6998 70.9062 44.6998H71.6055C72.9901 44.6998 74.2974 45.1155 75.3037 45.8766V36.7916C74.8887 36.4287 74.7021 35.8018 74.7021 35.2984C74.7021 23.011 64.6898 12.9986 52.4023 12.9986C40.1149 12.9986 30.1026 23.011 30.1025 35.2984C30.1025 35.8274 29.8957 36.3502 29.501 36.774V45.8932C30.5623 45.1251 31.7972 44.6998 33.1992 44.6998H33.8984C37.3096 44.6998 40.0985 47.4888 40.0986 50.9V62.2984C40.0985 65.7096 37.3096 68.4986 33.8984 68.4986H33.1992C30.2513 68.4986 27.8106 66.3974 27.1396 63.6803C24.7063 63.4023 22.8 61.3537 22.7998 58.8961V54.3961C22.7998 52.354 24.0982 50.6219 25.9014 49.8658V36.7916C25.4863 36.4289 25.2999 35.8019 25.2998 35.2984C25.2998 20.392 37.488 8.1998 52.3984 8.1998ZM33.1982 46.2018C31.6563 46.2018 30.3151 46.8738 29.4551 47.9244C28.7776 48.7951 28.3985 49.7515 28.3984 50.899V62.399C28.3984 65.0866 30.607 67.1996 33.1982 67.1998H33.8975C36.5852 67.1998 38.6973 64.9904 38.6973 62.399V51.0016C38.6973 48.3138 36.4889 46.2018 33.8975 46.2018H33.1982ZM70.8975 46.0992C68.2099 46.0992 66.0979 48.3078 66.0977 50.899V62.399C66.0977 65.0867 68.3061 67.1998 70.8975 67.1998H71.5967C74.2843 67.1997 76.3965 64.9904 76.3965 62.399V50.899C76.3964 49.7401 76.0092 48.6904 75.3447 47.9293L75.3398 47.9244C74.4739 46.8666 73.1299 46.0993 71.5967 46.0992H70.8975ZM26.998 51.0475C25.4911 51.4232 24.2969 52.788 24.2969 54.4V58.9C24.297 60.521 25.4135 61.8841 26.998 62.2545V51.0475ZM77.7969 62.2516C79.3038 61.8758 80.498 60.511 80.498 58.899V54.4C80.498 52.7788 79.3815 51.4149 77.7969 51.0445V62.2516ZM27.2969 49.0357C27.4861 48.4552 27.7413 47.9469 28.0957 47.441V37.2018H27.2969V49.0357ZM76.6992 47.441C77.0548 47.9487 77.3084 48.4571 77.498 49.0016V37.2018H76.6992V47.441ZM52.3965 9.60019C38.3088 9.60034 26.7951 21.1119 26.6943 35.3043C26.6945 35.4299 26.7161 35.5257 26.7529 35.608C26.7822 35.6734 26.8268 35.7349 26.8857 35.8014H28.4043C28.4633 35.7348 28.5078 35.6735 28.5371 35.608C28.5741 35.5253 28.5957 35.4289 28.5957 35.3023C28.5958 22.192 39.2871 11.5006 52.3975 11.5006H52.7266L52.7236 11.5055C65.6832 11.6812 76.1975 22.296 76.0967 35.2018L76.1006 35.2916C76.1083 35.3759 76.1275 35.4454 76.1553 35.5074C76.1846 35.5729 76.229 35.6342 76.2881 35.7008H77.8066C77.8658 35.6342 77.9101 35.5729 77.9395 35.5074C77.9765 35.4247 77.998 35.3283 77.998 35.2018C77.998 21.1132 66.485 9.60019 52.3965 9.60019Z" stroke="white" stroke-width="0.4"/>
</g>
<g filter="url(#filter1_d_0_1)">
<rect x="43" y="53.4" width="2" height="7" rx="1" fill="white"/>
<rect width="2" height="7" rx="1" transform="matrix(-1 0 0 1 18 53.4)" fill="white"/>
<rect x="86" y="53.4" width="2" height="7" rx="1" fill="white"/>
<rect x="59" y="53.4" width="2" height="7" rx="1" fill="white"/>
<rect x="47" y="51.4" width="2" height="10" rx="1" fill="white"/>
<rect width="2" height="10" rx="1" transform="matrix(-1 0 0 1 14 51.4)" fill="white"/>
<rect x="90" y="51.4" width="2" height="10" rx="1" fill="white"/>
<rect x="55" y="51.4" width="2" height="10" rx="1" fill="white"/>
<rect x="51" y="49.4" width="2" height="14" rx="1" fill="white"/>
<rect width="2" height="14" rx="1" transform="matrix(-1 0 0 1 10 49.4)" fill="white"/>
<rect x="94" y="49.4" width="2" height="14" rx="1" fill="white"/>
</g>
<defs>
<filter id="filter0_d_0_1" x="12.6" y="0" width="79.5969" height="80.8002" filterUnits="userSpaceOnUse" color-interpolation-filters="sRGB">
<feFlood flood-opacity="0" result="BackgroundImageFix"/>
<feColorMatrix in="SourceAlpha" type="matrix" values="0 0 0 0 0 0 0 0 0 0 0 0 0 0 0 0 0 0 127 0" result="hardAlpha"/>
<feOffset dy="2"/>
<feGaussianBlur stdDeviation="5"/>
<feComposite in2="hardAlpha" operator="out"/>
<feColorMatrix type="matrix" values="0 0 0 0 0.309804 0 0 0 0 0.698039 0 0 0 0 0.866667 0 0 0 1 0"/>
<feBlend mode="normal" in2="BackgroundImageFix" result="effect1_dropShadow_0_1"/>
<feBlend mode="normal" in="SourceGraphic" in2="effect1_dropShadow_0_1" result="shape"/>
</filter>
<filter id="filter1_d_0_1" x="0" y="43.4" width="104" height="30" filterUnits="userSpaceOnUse" color-interpolation-filters="sRGB">
<feFlood flood-opacity="0" result="BackgroundImageFix"/>
<feColorMatrix in="SourceAlpha" type="matrix" values="0 0 0 0 0 0 0 0 0 0 0 0 0 0 0 0 0 0 127 0" result="hardAlpha"/>
<feOffset dy="2"/>
<feGaussianBlur stdDeviation="4"/>
<feComposite in2="hardAlpha" operator="out"/>
<feColorMatrix type="matrix" values="0 0 0 0 0.309804 0 0 0 0 0.698039 0 0 0 0 0.866667 0 0 0 1 0"/>
<feBlend mode="normal" in2="BackgroundImageFix" result="effect1_dropShadow_0_1"/>
<feBlend mode="normal" in="SourceGraphic" in2="effect1_dropShadow_0_1" result="shape"/>
</filter>
</defs>
</svg>
