<svg width="92" height="60" viewBox="0 0 92 60" fill="none" xmlns="http://www.w3.org/2000/svg">
<g filter="url(#filter0_d_0_1)">
<rect x="37" y="39.5" width="2" height="7" rx="1" fill="white"/>
<rect width="2" height="7" rx="1" transform="matrix(-1 0 0 1 18 39.5)" fill="white"/>
<rect x="74" y="39.5" width="2" height="7" rx="1" fill="white"/>
<rect x="53" y="39.5" width="2" height="7" rx="1" fill="white"/>
<rect x="41" y="37.5" width="2" height="10" rx="1" fill="white"/>
<rect width="2" height="10" rx="1" transform="matrix(-1 0 0 1 14 37.5)" fill="white"/>
<rect x="78" y="37.5" width="2" height="10" rx="1" fill="white"/>
<rect x="49" y="37.5" width="2" height="10" rx="1" fill="white"/>
<rect x="45" y="35.5" width="2" height="14" rx="1" fill="white"/>
<rect width="2" height="14" rx="1" transform="matrix(-1 0 0 1 10 35.5)" fill="white"/>
<rect x="82" y="35.5" width="2" height="14" rx="1" fill="white"/>
</g>
<path d="M22 33.8529V45.5C22 48.8137 24.6863 51.5 28 51.5C31.3137 51.5 34 48.8137 34 45.5V42.6765C34 37.8034 30.0496 33.8529 25.1765 33.8529H22ZM22 33.8529V25.5C22 12.2452 32.7452 1.5 46 1.5C59.2548 1.5 70 12.2452 70 25.5V33.8529M70 33.8529V45.5C70 48.8137 67.3137 51.5 64 51.5C60.6863 51.5 58 48.8137 58 45.5V42.6765C58 37.8034 61.9504 33.8529 66.8235 33.8529H70Z" stroke="white" stroke-width="3" stroke-linecap="round" stroke-linejoin="round"/>
<defs>
<filter id="filter0_d_0_1" x="0" y="29.5" width="92" height="30" filterUnits="userSpaceOnUse" color-interpolation-filters="sRGB">
<feFlood flood-opacity="0" result="BackgroundImageFix"/>
<feColorMatrix in="SourceAlpha" type="matrix" values="0 0 0 0 0 0 0 0 0 0 0 0 0 0 0 0 0 0 127 0" result="hardAlpha"/>
<feOffset dy="2"/>
<feGaussianBlur stdDeviation="4"/>
<feComposite in2="hardAlpha" operator="out"/>
<feColorMatrix type="matrix" values="0 0 0 0 0.309804 0 0 0 0 0.698039 0 0 0 0 0.866667 0 0 0 1 0"/>
<feBlend mode="normal" in2="BackgroundImageFix" result="effect1_dropShadow_0_1"/>
<feBlend mode="normal" in="SourceGraphic" in2="effect1_dropShadow_0_1" result="shape"/>
</filter>
</defs>
</svg>
