<svg width="181" height="52" viewBox="0 0 181 52" fill="none" xmlns="http://www.w3.org/2000/svg">
<path d="M100.52 38.9546C100.563 38.8151 100.591 38.6729 100.585 38.6237L100.574 38.5115C100.793 38.3283 101.198 37.1167 101.037 36.794C100.919 36.5533 100.733 36.5861 100.443 36.6682C100.366 36.69 100.284 36.7119 100.208 36.7229C100.025 36.7475 99.9069 36.7229 99.8112 36.7064C99.7128 36.6873 99.6417 36.6736 99.5268 36.7201C99.0017 36.9307 97.6752 38.9464 97.7326 39.8408C97.7436 40.0322 97.9077 40.1088 98.0827 40.1908C98.2769 40.2784 98.5176 40.3823 98.4164 40.6886C98.348 40.8992 97.615 41.4188 97.481 41.4599C96.9094 41.624 96.7316 41.1782 96.6113 40.8828L96.6031 40.8664C96.1955 39.8681 96.1244 39.0531 96.3596 38.063C96.3679 38.0165 96.3596 37.9727 96.3542 37.9235C96.346 37.8633 96.335 37.8004 96.3596 37.7403C96.521 37.33 96.7453 36.9854 96.9641 36.6517C97.1118 36.422 97.2513 36.2059 97.3689 35.9735C97.4372 35.8394 97.4947 35.5988 97.5466 35.3882C97.5931 35.1912 97.6342 35.0217 97.6779 34.9342C97.6998 34.8877 97.7518 34.8822 97.7983 34.8767C97.8092 34.8767 97.8256 34.8767 97.8338 34.8713C97.883 34.8111 98.1155 34.4172 98.1565 34.3188C98.2085 34.193 98.2495 34.0289 98.2906 33.8593C98.3453 33.6432 98.4054 33.3971 98.5039 33.1756C98.5504 33.0662 98.6434 32.9431 98.7391 32.8091C98.8403 32.6696 98.9442 32.5274 98.988 32.4152C99.1767 31.8901 99.3135 31.5099 99.4365 30.9739C99.4611 30.8645 99.5323 30.7523 99.6088 30.6293C99.6827 30.5117 99.7593 30.3886 99.7839 30.2792C99.8304 30.0522 99.8358 29.9373 99.8413 29.8224C99.8468 29.7158 99.8495 29.6146 99.8878 29.445C99.9316 29.2481 99.9808 29.0922 100.03 28.939C100.107 28.6929 100.18 28.4713 100.235 28.0693L100.241 28.0529C100.254 28.0091 100.273 27.9326 100.273 27.897H100.216L100.238 27.8149C100.405 27.2214 100.569 26.3408 100.153 25.5777C100.131 25.5722 100.104 25.564 100.068 25.5531C99.9069 25.5011 99.5705 25.3972 99.3654 25.4081C99.2259 25.4136 99.0837 25.5285 98.9442 25.6379C98.8622 25.6981 98.7801 25.7637 98.6981 25.8075C98.6133 25.8512 98.5066 25.8922 98.3918 25.936C98.1593 26.0235 97.8995 26.122 97.7873 26.2724C97.7627 26.3052 97.7654 26.3326 97.7709 26.3791C97.7736 26.4174 97.7791 26.4611 97.7572 26.5049C97.6889 26.6444 97.5685 26.762 97.4537 26.8741C97.347 26.978 97.2376 27.082 97.1719 27.2023C96.8574 27.7575 96.7234 28.2635 96.5538 28.8953C96.5538 28.8953 96.4827 29.1551 96.4827 29.1578C96.4362 29.3192 96.3651 29.4313 96.294 29.538C96.2475 29.6091 96.2038 29.6747 96.1682 29.7568C96.067 29.9865 95.9713 30.3503 96.0123 30.4077L96.0479 30.4351L96.0342 30.4788C95.9576 30.7086 95.8838 30.8754 95.8154 31.034C95.7388 31.2091 95.665 31.3732 95.5856 31.6166V31.6275C95.5856 31.6522 95.6021 31.6987 95.6185 31.7451L95.6239 31.7588V31.7752C95.5966 32.0515 95.561 32.3441 95.4817 32.6203C95.118 33.862 94.8992 35.5577 94.7077 37.0647L94.5217 38.4596L94.5135 38.4897C94.3795 38.5772 93.9611 38.8808 93.9282 38.9628C93.9036 39.023 93.8927 39.4141 93.8981 39.7614C93.9282 39.8353 93.9337 39.9009 93.9337 39.9037V39.9611C93.9474 40.106 93.9693 40.3932 94.024 40.4096C94.024 40.4096 94.0732 40.4151 94.199 40.2537C94.2318 40.2072 94.333 40.0732 94.4561 40.1033C94.6284 40.1498 94.6749 40.4862 94.7323 41.0059C94.7515 41.1836 94.7679 41.3505 94.7952 41.4462C94.8007 41.4681 94.8499 41.5857 94.8609 41.6103L94.8663 41.624C94.9621 42.1491 95.1344 42.8 95.334 43.0517C95.7333 43.5467 96.6523 43.8284 97.44 43.4099C97.6533 43.2923 97.7955 43.1173 97.9323 42.9395C98.0362 42.8055 98.1347 42.677 98.2577 42.5922C98.2933 42.5676 98.348 42.5457 98.4109 42.5211C98.5121 42.4828 98.6352 42.4335 98.6981 42.3624C98.813 42.2257 98.8704 42.0971 98.9333 41.9604C98.9962 41.8236 99.0591 41.6841 99.1849 41.5283C99.2369 41.4626 99.3162 41.3997 99.3873 41.3368C99.483 41.2575 99.5842 41.1727 99.628 41.0879C99.6417 41.0606 99.6444 40.9813 99.6444 40.9238C99.6444 40.85 99.6444 40.7871 99.6608 40.746C99.6799 40.7023 99.7046 40.6749 99.7264 40.6476C99.7483 40.6202 99.7757 40.5929 99.8003 40.5354C99.855 40.4151 99.9288 40.2674 100.016 40.0896C100.189 39.7368 100.402 39.2992 100.522 38.9546H100.52ZM98.8512 29.0293L98.8321 29.136L98.813 29.2399C98.7364 29.6665 98.6297 30.0166 98.5285 30.353C98.4519 30.6019 98.3808 30.8399 98.3261 31.0887C98.2769 31.3158 98.2468 31.5017 98.2195 31.6795C98.1702 31.9995 98.1265 32.2757 98.0034 32.6149C97.9487 32.7653 97.8475 32.8829 97.7764 32.9677C97.749 32.9978 97.7025 33.0525 97.6943 33.0744C97.6478 33.1892 97.6232 33.3123 97.5931 33.4436C97.574 33.5256 97.5576 33.6077 97.533 33.6979C97.3196 34.4774 97.0653 34.833 96.7644 34.781C96.387 34.7154 96.4253 34.2696 96.4554 33.8702C96.4554 33.8484 96.4718 33.6487 96.4909 33.5038C96.5238 33.2576 96.6167 33.0333 96.7234 32.7735L96.7343 32.7516L96.7425 32.7297V32.7161C96.759 32.6614 96.7781 32.5957 96.8109 32.4891C96.8219 32.4371 96.8602 32.2785 96.9258 32.1116C97.0297 31.8381 97.1419 31.6193 97.2485 31.4169C97.3224 31.272 97.3907 31.1352 97.4482 31.0012C97.4673 30.9575 97.4728 30.8727 97.4755 30.8043C97.481 30.7305 97.4837 30.6511 97.5056 30.58C97.6506 30.0877 97.8694 29.6036 98.2222 29.0156L98.3316 28.8324L98.5285 28.9089L98.6461 28.9527L98.843 29.0293" fill="#4FB2DD"/>
<path d="M127.842 37.4121V37.4039C127.872 37.2753 127.916 36.8952 127.79 36.7639C127.755 36.7256 127.706 36.7146 127.643 36.7229C127.604 36.7393 127.487 36.8733 127.388 36.9799C127.216 37.1741 127 37.4093 126.836 37.5023C126.721 37.5652 126.584 37.65 126.439 37.7375C125.624 38.2353 124.393 38.9874 123.485 38.4021C123.436 38.3693 123.384 38.3666 123.338 38.3639C123.291 38.3639 123.245 38.3584 123.204 38.3283C123.051 38.2134 122.804 37.6035 122.903 37.2288C122.938 37.0839 123.13 36.9608 123.313 36.8432C123.42 36.7748 123.526 36.7064 123.576 36.649C123.874 36.2825 124.188 35.968 124.492 35.6589C124.93 35.2241 125.34 34.8138 125.676 34.3024C125.728 34.2203 125.745 34.1164 125.764 34.0043C125.78 33.8976 125.799 33.7909 125.846 33.6843C125.879 33.6104 125.928 33.5585 125.969 33.5147C126.021 33.4573 126.067 33.408 126.084 33.3205C126.116 33.1263 126.073 32.9896 126.032 32.8556C126.01 32.7844 125.988 32.7188 125.977 32.645C125.881 31.9284 125.337 31.6959 125.02 31.6221C124.426 31.4881 124.076 31.8135 123.822 32.0542C123.764 32.1089 123.71 32.1609 123.658 32.1992L123.491 32.3277C123.007 32.6969 122.785 32.8638 122.35 33.4381C122.29 33.5147 122.214 33.5831 122.137 33.646C122.05 33.7198 121.959 33.7964 121.902 33.8839C121.779 34.0808 121.727 34.2641 121.669 34.4555C121.647 34.5294 121.626 34.6114 121.596 34.6935C121.571 34.7673 121.519 34.8001 121.475 34.8248C121.448 34.8439 121.429 34.8548 121.418 34.8767C121.281 35.1229 121.122 35.5167 120.945 36.0473C120.917 36.1266 120.895 36.2661 120.873 36.4165C120.838 36.6435 120.8 36.876 120.734 36.9964L120.729 37.0046L120.72 37.01L119.749 37.8688L119.738 37.877H119.725C119.432 37.97 119.205 37.9536 119.03 37.836C118.707 37.6145 118.661 37.0839 118.62 36.608C118.601 36.381 118.582 36.1649 118.538 36.0063C118.532 35.9871 118.527 35.9598 118.516 35.9188C118.486 35.7793 118.431 35.5222 118.341 35.3991C118.231 35.2514 118.045 35.1694 117.818 35.1721C117.509 35.1721 117.181 35.3253 117.025 35.5386C116.869 35.7519 116.615 36.1376 116.437 36.4357C116.413 36.4794 116.41 36.5232 116.407 36.5752C116.404 36.6299 116.402 36.69 116.369 36.7475C115.775 37.7157 115.042 38.8069 114.033 39.4989L113.989 39.529L113.951 39.4934L113.916 39.4579L113.921 39.4633C113.73 39.3129 113.634 38.889 113.653 38.8315C113.653 38.7823 113.653 38.6838 113.653 38.6866C113.579 36.8815 113.869 35.8586 114.173 34.7755L114.315 34.2778C114.394 33.9769 114.435 33.5858 114.165 33.4381C113.834 33.2549 113.21 33.5092 112.895 33.8538C112.734 34.0289 112.638 34.275 112.556 34.4856C112.513 34.6032 112.472 34.7126 112.422 34.8001C112.338 34.9588 112.193 35.1311 112.067 35.2842C111.987 35.3772 111.914 35.4675 111.87 35.5359C111.826 35.6015 111.801 35.7027 111.782 35.7875C111.769 35.8504 111.755 35.9078 111.733 35.9488C111.703 35.9981 111.64 36.0063 111.585 36.0117C111.473 36.3372 111.293 36.556 111.096 36.7858C110.995 36.9034 110.891 37.0264 110.792 37.1714C110.748 37.2343 110.705 37.3273 110.666 37.4039C110.612 37.5187 110.579 37.5898 110.541 37.6254C110.491 37.6664 110.437 37.6446 110.401 37.6254C110.355 37.6719 110.319 37.7047 110.3 37.7266C110.248 37.7813 110.237 37.7868 110.166 37.8059C110.125 37.8169 110.057 37.836 109.931 37.8825C109.854 37.9098 109.706 38.0521 109.638 38.1232C109.592 38.1669 109.578 38.1833 109.562 38.1915C109.474 38.2408 109.348 38.3009 109.211 38.3639C109.031 38.4486 108.845 38.5362 108.736 38.6045L108.522 38.7385C108.093 39.012 107.726 39.2473 107.103 39.2391C107.004 39.2391 106.616 39.2172 106.493 39.1625C105.858 38.8862 105.043 37.6856 105.246 36.742C105.265 36.6517 105.363 36.567 105.478 36.4685C105.568 36.3919 105.661 36.3099 105.702 36.2388C105.763 36.1294 105.795 35.9981 105.826 35.8777C105.85 35.7793 105.872 35.6863 105.91 35.6152L105.924 35.5906L105.951 35.5851L106.055 35.5577C106.145 35.2104 106.424 34.7783 106.651 34.4337C106.709 34.3516 106.761 34.2668 106.805 34.1957C107.054 33.7937 107.39 33.0771 107.559 32.645C107.601 32.541 107.601 32.4344 107.603 32.3414C107.603 32.2566 107.603 32.1827 107.631 32.1198C107.74 31.871 107.866 31.6522 107.989 31.447C108.087 31.2747 108.189 31.097 108.276 30.9082C108.224 30.807 108.298 30.6265 108.361 30.4816C108.372 30.4542 108.388 30.4159 108.391 30.4077C108.446 30.167 108.509 29.9127 108.577 29.6447C108.853 28.5425 109.165 27.2871 109.086 26.0974L109.066 25.7746C109.031 25.1128 109.02 24.8611 108.47 24.6724C108.432 24.6588 108.388 24.6369 108.342 24.6123C108.276 24.5767 108.194 24.5329 108.145 24.5357C107.765 24.5494 107.598 24.7572 107.406 24.9952C107.368 25.0417 107.33 25.0909 107.289 25.1374C107.245 25.1866 107.188 25.2112 107.133 25.2331C107.089 25.2522 107.051 25.3343 107.056 25.348L107.073 25.3917L107.037 25.4218C106.482 25.8622 106.28 26.3709 106.044 26.9589C105.973 27.1339 105.899 27.3172 105.815 27.5059C105.754 27.6372 105.678 27.7548 105.598 27.8778C105.503 28.0283 105.402 28.1842 105.33 28.3702C105.265 28.526 105.221 28.7448 105.175 28.9609C105.125 29.1961 105.079 29.4149 105.016 29.5462C104.453 30.6621 104.083 32.1253 103.774 33.5475C103.755 33.6296 103.769 33.7855 103.774 33.8374V33.862C103.624 34.4637 103.572 35.0463 103.572 36.1512C103.588 36.1704 103.599 36.1977 103.588 36.2278C103.58 36.2552 103.564 36.2798 103.536 36.2989C103.536 36.3646 103.547 36.4466 103.555 36.5287C103.572 36.7174 103.583 36.8377 103.566 36.9034C103.534 37.0428 103.364 37.1905 103.214 37.3191C103.142 37.3765 103.074 37.4312 103.036 37.475C102.959 37.5652 102.894 37.6746 102.831 37.7786C102.749 37.9153 102.664 38.0603 102.546 38.1724C102.472 38.2435 102.399 38.249 102.333 38.2545C102.273 38.2599 102.224 38.2654 102.161 38.3146C102.038 38.4131 101.901 38.569 101.78 38.7085C101.704 38.796 101.633 38.8808 101.573 38.9355C101.521 38.9847 101.48 39.0804 101.433 39.1789C101.389 39.2773 101.34 39.3895 101.266 39.4825C101.173 39.6028 101.072 39.6903 100.974 39.7779C100.823 39.9091 100.681 40.0377 100.585 40.2647C100.585 40.2647 100.561 40.2701 100.574 40.2647C100.569 40.2647 100.552 40.2756 100.536 40.2866C100.473 40.4124 100.375 40.5218 100.273 40.6284C100.057 40.8582 99.8741 41.0606 100.074 41.4407C100.479 41.3259 100.779 41.0469 101.097 40.746C101.209 40.6421 101.326 40.5327 101.449 40.4288C101.584 40.3166 101.739 40.2428 101.876 40.1662C101.95 40.1279 102.016 40.0924 102.073 40.0568C102.073 40.0568 102.073 40.0541 102.073 40.0513C102.065 40.0267 102.043 39.9529 102.122 39.9091C102.15 39.8927 102.188 39.89 102.24 39.8845C102.303 39.879 102.385 39.8708 102.429 39.8408C102.467 39.8161 102.489 39.7696 102.516 39.704C102.549 39.6356 102.585 39.5508 102.658 39.4688C102.806 39.302 102.981 39.1515 103.153 39.0066C103.257 38.9191 103.364 38.8261 103.46 38.7358L103.487 38.7085L103.523 38.7221C103.865 38.8425 103.916 39.0968 103.963 39.3184C103.982 39.4086 104.001 39.5044 104.04 39.5864C104.261 40.076 105.021 40.8445 105.527 41.0004C105.588 41.0195 105.779 41.0305 105.951 41.0387C106.085 41.0469 106.225 41.0551 106.315 41.0688C107.193 41.1809 108.005 40.7105 108.793 40.2619L108.872 40.2182C108.913 40.1963 108.96 40.1334 109.001 40.0732C109.05 40.0076 109.094 39.9447 109.149 39.9091C109.263 39.8326 109.425 39.7642 109.597 39.6931C109.819 39.6001 110.076 39.4961 110.243 39.3594C110.374 39.2527 110.472 39.116 110.576 38.9738C110.77 38.703 110.97 38.4213 111.419 38.3392L111.468 38.331L111.487 38.3775C111.514 38.4404 111.659 39.0914 111.599 39.2172C111.741 40.2373 112.009 40.85 112.436 41.159C112.723 41.3696 113.079 41.4298 113.525 41.3477C114.23 41.2165 114.873 40.3741 115.297 39.8243L115.458 39.611C115.491 39.57 115.54 39.5426 115.589 39.518C115.63 39.4961 115.677 39.4715 115.693 39.4442C115.754 39.343 115.814 39.2309 115.877 39.1105C116.063 38.7604 116.257 38.3967 116.508 38.2435C116.511 38.2435 116.519 38.2353 116.525 38.2298C116.552 38.2025 116.593 38.1615 116.648 38.1669C116.853 38.1669 116.932 38.4459 117.001 38.6674C117.02 38.7303 117.036 38.7878 117.055 38.8315C117.135 39.0257 117.318 39.2309 117.589 39.4278C118.59 40.1662 119.539 39.436 120.302 38.8534C120.482 38.7139 120.652 38.5827 120.805 38.4897L120.854 38.4596L120.89 38.5033C121.024 38.6729 121.122 38.8835 121.232 39.105C121.407 39.4661 121.587 39.8353 121.905 40.0131C122.047 40.0924 122.181 40.1252 122.298 40.1525C122.378 40.1717 122.457 40.1881 122.525 40.2182C122.813 40.3358 123.146 40.4643 123.431 40.4452C124.104 40.4014 124.878 40.169 125.403 39.8408C125.452 39.8107 125.925 39.4114 126.229 39.1515L126.245 39.1379H126.264C126.308 39.1324 126.338 39.1488 126.36 39.1625C126.48 39.0695 126.587 38.9683 126.685 38.8726C126.836 38.7276 126.994 38.5717 127.202 38.4514C127.295 38.3967 127.383 38.3775 127.462 38.3584C127.58 38.3338 127.662 38.3146 127.733 38.197C127.892 37.929 127.856 37.6254 127.829 37.4039V37.3929L127.842 37.4121ZM107.475 30.2628C107.332 30.8946 107.133 31.5646 107.073 31.7424C106.985 31.9995 106.843 32.2265 106.706 32.4453C106.619 32.5903 106.534 32.7243 106.474 32.8556C106.46 32.8829 106.455 32.9021 106.446 32.9267C106.435 32.9568 106.424 32.995 106.403 33.0388C106.378 33.088 106.351 33.1291 106.331 33.1564C106.321 33.1728 106.307 33.1947 106.301 33.2029C106.285 33.2385 106.28 33.2603 106.269 33.2904C106.26 33.315 106.252 33.3424 106.238 33.3697C106.217 33.4162 106.197 33.4545 106.181 33.4873C106.165 33.5202 106.148 33.553 106.14 33.5721C106.124 33.6104 106.113 33.6378 106.104 33.6624C106.094 33.6897 106.083 33.7226 106.066 33.7581C106.044 33.8046 106.025 33.8402 106.009 33.873C105.992 33.9031 105.976 33.9359 105.96 33.9742C105.932 34.0316 105.902 34.0754 105.88 34.1137C105.869 34.1355 105.856 34.1519 105.847 34.1656C105.836 34.1848 105.828 34.2012 105.82 34.2176C105.79 34.2696 105.765 34.3188 105.722 34.3762C105.642 34.4719 105.588 34.5048 105.53 34.5376C105.516 34.5458 105.508 34.5485 105.492 34.5622L105.38 34.6525L105.153 34.8302L104.928 35.008L104.967 34.4391L104.975 34.2969C104.989 34.0972 105.054 33.7964 105.09 33.6542C105.117 33.5338 105.139 33.3944 105.164 33.2467C105.218 32.9021 105.276 32.5465 105.429 32.2593C105.552 32.0323 105.774 31.581 105.886 31.1298C105.905 31.0587 105.905 30.9575 105.905 30.8617C105.905 30.7195 105.905 30.5417 105.965 30.3749C106.165 29.7705 106.553 29.259 106.895 28.805L106.9 28.8105C106.925 28.7695 106.958 28.723 107.012 28.6519C107.036 28.6227 107.05 28.6072 107.054 28.6054L107.122 28.526L107.19 28.444L107.376 28.5479L107.425 28.5725C107.721 28.7339 107.735 29.1633 107.486 30.2655L107.475 30.2628ZM124.547 33.9195L124.519 34.0234L124.492 34.1301L124.478 34.1848C124.361 34.6251 123.729 35.7574 123.163 35.8641C122.936 35.9051 122.769 35.8613 122.659 35.7328C122.504 35.5468 122.586 35.3198 122.618 35.2241C122.618 35.2241 122.618 35.2241 122.621 35.2241C122.621 35.2131 122.627 35.2049 122.627 35.2049C122.739 34.8767 122.93 34.6251 123.13 34.3899C123.343 34.1273 123.598 33.9304 123.819 33.7745C123.871 33.739 124.008 33.6378 124.155 33.7526C124.155 33.7526 124.166 33.7636 124.172 33.7663C124.172 33.7663 124.177 33.7663 124.18 33.7663L124.229 33.7827C124.259 33.7937 124.279 33.7991 124.3 33.8073H124.306L124.344 33.8237L124.443 33.8675L124.544 33.9113" fill="#4FB2DD"/>
<path d="M59.2292 34.4172C59.2675 34.4446 59.3086 34.4719 59.3332 34.5157C59.3578 34.5704 59.3332 34.6251 59.3168 34.6634C59.5137 34.8466 59.7817 35.0053 60.2576 34.8959C60.4682 34.8466 61.327 34.2094 61.4993 33.8949C61.5567 33.7909 61.5731 33.646 61.5896 33.5202C61.6005 33.4326 61.6114 33.3479 61.6333 33.2795L61.6661 33.181C61.8111 32.7407 62.0819 31.9229 61.8193 31.581C61.7263 31.4689 61.5731 31.4169 61.3516 31.4279C60.9249 31.4498 60.5639 31.8491 60.3232 32.1198L60.285 32.1636C60.2138 32.2429 60.1181 32.2867 60.0251 32.3304C59.9513 32.366 59.8829 32.3988 59.8309 32.4453C59.2785 32.9212 58.9503 33.8484 59.1609 34.3489C59.1691 34.368 59.2019 34.3926 59.2292 34.4118" fill="#4FB2DD"/>
<path d="M88.1355 39.2445C88.1437 39.1734 88.1464 39.1324 88.0917 39.0968C87.9905 39.0285 87.3779 39.663 87.0142 40.0404C86.4754 40.5874 85.9284 41.1618 85.5591 41.3149L85.5099 41.3341L85.4798 41.2903C84.993 40.5491 85.8025 36.9799 86.2319 35.0545C86.3304 34.6169 86.407 34.2805 86.4343 34.1219L86.4398 34.0918C86.4316 34.0672 86.4289 34.0371 86.4617 34.0125C86.5848 33.914 86.7598 33.8839 86.9348 33.8566C87.2247 33.8101 87.4052 33.7663 87.4435 33.5667C87.4572 33.4737 87.4189 32.087 87.4107 31.9667C87.3888 31.9147 87.3205 31.8737 87.2548 31.8354C87.1728 31.7862 87.088 31.7369 87.0634 31.6494C86.995 31.3869 87.0962 31.1462 87.1947 30.9082C87.2904 30.6785 87.3888 30.4405 87.3423 30.1616C87.3123 29.992 87.1755 29.8471 87.0688 29.7322C87.0114 29.6693 86.9677 29.6173 86.943 29.5681L86.9239 29.5489C86.7735 29.497 86.6395 29.4997 86.5164 29.5599C86.1499 29.7404 85.9393 30.4077 85.7725 30.9411C85.6494 31.3322 85.5509 31.6303 85.4114 31.7506C85.1051 32.0132 83.9072 31.9667 83.6282 31.9393C83.2699 31.9038 83.0921 31.9749 82.9335 32.0351C82.8515 32.0651 82.7749 32.0952 82.6819 32.1116C82.5561 32.1308 82.3318 32.1116 82.072 32.087C81.7438 32.0569 81.3746 32.0241 81.1968 32.0761C81.1312 32.0925 80.9233 32.2402 80.885 32.2921C80.6908 32.5766 80.7537 33.3041 80.7893 33.6022C80.8768 34.2996 82.1458 34.1656 83.2617 34.0453C83.6556 34.0043 84.0275 33.9632 84.3256 33.9632H84.3831L84.3885 34.0234C84.4268 34.4966 84.0932 35.1803 83.9619 35.4046C83.9427 35.4374 83.9072 35.4565 83.8662 35.4812C83.8415 35.4948 83.8005 35.5195 83.7923 35.5359C83.7814 35.5577 83.7896 35.5796 83.8087 35.6152C83.8169 35.6343 83.8251 35.6507 83.8306 35.6726L83.8388 35.7164L83.8005 35.7383C83.6145 35.8531 83.527 36.1047 83.4368 36.3728C83.3793 36.5369 83.3219 36.7092 83.2371 36.8596C83.2289 36.8705 83.2207 36.8815 83.1578 36.9389C83.0894 37.0018 82.9636 37.1222 82.9253 37.1769C82.8159 37.3355 82.7147 37.5379 82.619 37.7403C82.5369 37.9098 82.4576 38.0712 82.3756 38.2052C82.2279 38.4404 80.6389 40.4397 79.646 40.2483C78.9979 40.117 78.7955 39.4825 78.6177 38.9191C78.4153 38.2818 78.2375 37.7348 77.521 37.888C77.4444 37.9016 77.097 38.0357 77.0642 38.0521C76.6293 38.3174 76.509 38.7686 76.3914 39.2035C76.3613 39.3156 76.3312 39.4332 76.2929 39.5426C76.2765 39.5891 76.23 39.6548 76.148 39.7669C76.0659 39.8818 75.962 40.024 75.9073 40.1389C75.8362 40.2866 75.7706 40.4315 75.6994 40.5956C75.5709 40.8883 75.4396 41.1891 75.281 41.4845C75.2454 41.5501 75.2126 41.6158 75.1825 41.6787C75.0348 41.9768 74.9063 42.2339 74.5863 42.3488L74.5124 42.3761L74.5042 42.2968C74.4058 41.5009 74.4687 41.0086 74.5589 40.2729L74.6054 39.8982C74.6191 39.8079 74.6191 39.715 74.6218 39.6247C74.6301 39.4305 74.6355 39.2473 74.7148 39.0804C74.8707 38.744 75.2208 38.3721 75.5271 38.0439C75.6994 37.8606 75.8635 37.6828 75.9675 37.5434C76.0085 37.4887 76.0577 37.423 76.1124 37.3601C76.2245 37.2206 76.3531 37.0565 76.4516 36.8979C76.4953 36.8241 76.5227 36.7174 76.5473 36.6244C76.5746 36.5314 76.591 36.4548 76.6266 36.4083C76.7169 36.2853 76.8345 36.1759 76.9493 36.0719C77.0669 35.9625 77.1763 35.8613 77.2447 35.7519C77.428 35.462 77.5456 35.1912 77.6604 34.9314C77.7726 34.6798 77.8792 34.4419 78.0379 34.2012C78.109 34.0918 78.1883 33.9988 78.2703 33.9085C78.377 33.7882 78.4809 33.6733 78.5548 33.5147C78.645 33.3178 78.6943 33.14 78.7435 32.9677C78.7872 32.8118 78.831 32.6614 78.8966 32.5219V32.5082L78.9158 32.4891C78.9349 32.4727 78.9431 32.4699 79.0225 32.4727C79.11 32.1992 79.2413 31.9503 79.3534 31.7506C79.4136 31.6412 79.4655 31.5455 79.4929 31.4826C79.5831 31.2528 79.6378 31.0012 79.6898 30.7605C79.75 30.4843 79.8074 30.2217 79.9113 29.9893C79.9305 29.9455 79.9743 29.8908 80.0235 29.8306C80.0754 29.7677 80.1329 29.6939 80.1493 29.6474C80.2149 29.4505 80.2122 29.3301 80.2095 29.177C80.2095 29.1168 80.2095 29.0457 80.2122 28.9664L80.1985 28.9527L80.163 28.9199L80.1848 28.8789C80.2806 28.6984 80.2997 28.6327 80.338 28.5014L80.3517 28.4495C80.5568 27.6891 80.3954 27.0929 79.9524 26.9671C79.9141 26.9562 79.8703 26.9644 79.8211 26.9671C79.7609 26.9753 79.7007 26.9835 79.6406 26.9644C79.5421 26.937 79.4929 26.885 79.4519 26.8413C79.3972 26.7866 79.3589 26.7456 79.2139 26.7592C78.9869 26.7756 78.6833 27.0929 78.5219 27.2625C78.4782 27.309 78.4481 27.3418 78.4208 27.3664C78.2867 27.4895 78.1391 27.6044 77.9968 27.7138C77.7671 27.8915 77.5292 28.0748 77.3541 28.2963C77.2037 28.485 77.0669 28.7066 76.9192 28.9472C76.8071 29.1332 76.6868 29.3247 76.5637 29.497C76.5336 29.5407 76.4871 29.5708 76.4351 29.6091C76.364 29.6611 76.2847 29.7185 76.2163 29.8115C75.9319 30.1835 75.7487 30.5855 75.5381 31.0505L75.4615 31.22C75.4232 31.3048 75.3439 31.3814 75.2673 31.4525C75.2044 31.5127 75.1388 31.5701 75.1142 31.6275C75.0348 31.7944 74.9747 32.0132 74.9145 32.2238C74.8789 32.3468 74.8434 32.4754 74.8051 32.5903C74.7394 32.7844 74.6355 32.9349 74.5371 33.0798C74.4413 33.222 74.3483 33.3561 74.2909 33.5256C74.0119 34.3407 73.6181 35.514 73.3583 36.3263C73.2078 36.7912 73.1176 37.2671 73.0273 37.7567C72.9808 38.0083 72.9316 38.2681 72.8742 38.5307C72.825 38.7495 72.8222 38.9382 72.8195 39.1187C72.8167 39.3621 72.8113 39.5919 72.6964 39.8599C72.6143 40.0459 72.442 40.0814 72.3272 40.1006C72.2862 40.1088 72.2424 40.117 72.2233 40.1307C72.0756 40.2319 71.9115 40.4479 71.772 40.6476C71.6817 40.7734 71.6079 40.8828 71.5422 40.9484C71.2496 41.2438 70.905 41.4708 70.574 41.6924C70.3087 41.8674 70.0325 42.0506 69.7754 42.2694C69.7098 42.3241 69.5976 42.45 69.4828 42.5812C69.2284 42.8684 69.0397 43.0735 68.9194 43.1146C68.8647 43.1337 68.81 43.1255 68.7607 43.12C68.7279 43.1146 68.6951 43.1118 68.6705 43.12L68.6322 43.1255L68.6103 43.0927L68.4489 42.8629C67.9101 42.1218 67.0924 40.9977 67.4616 39.8189C67.5546 39.5153 67.7597 39.3731 68.0195 39.1953C68.118 39.1269 68.2301 39.0503 68.3477 38.9574C68.3669 38.9409 68.4134 38.8698 68.4517 38.8124C68.5146 38.7167 68.583 38.61 68.6513 38.5444C68.8647 38.3338 69.0807 38.1615 69.2859 37.9974C69.4609 37.8579 69.625 37.7266 69.7946 37.5707C69.8575 37.5133 69.9368 37.3765 69.9915 37.289C70.0352 37.2152 70.0544 37.1796 70.0735 37.1632L70.1009 37.1386L70.1364 37.1495C70.1364 37.1495 70.172 37.1605 70.2021 37.1714C70.2951 37.0593 70.3935 36.9608 70.492 36.8678C70.6014 36.7639 70.7053 36.6627 70.7956 36.5478C70.8831 36.4329 70.9241 36.3427 70.9651 36.247C71.0089 36.1485 71.0527 36.05 71.1402 35.927C71.1621 35.8996 71.1949 35.8805 71.2441 35.8559C71.3125 35.8176 71.4055 35.7656 71.4465 35.6918C71.6434 35.3225 71.5258 34.4637 71.3836 34.2778C71.0089 33.7718 70.2376 34.2586 70.0845 34.3625C69.026 35.0709 68.2356 35.8039 67.5054 36.7338C67.4042 36.8596 67.2647 36.9663 67.1307 37.0702C66.9884 37.1796 66.8408 37.2917 66.745 37.4148C66.6466 37.5516 66.6001 37.6801 66.5426 37.8442C66.4989 37.9673 66.4497 38.104 66.3676 38.2736C66.3156 38.3775 66.1871 38.4842 66.0859 38.5717C66.0421 38.61 65.9956 38.6483 65.9792 38.6674C65.8726 38.8042 65.7659 38.9929 65.6647 39.1734C65.5854 39.3156 65.5088 39.4524 65.435 39.5673C65.3475 39.6931 65.0986 39.8873 64.8333 40.0896C64.557 40.3002 64.2152 40.5573 64.1632 40.6804V40.7789L64.1249 40.7953C64.062 40.8226 63.9827 40.8363 63.9061 40.8472C63.8076 40.8637 63.7037 40.8801 63.6545 40.9238C63.5779 40.9922 63.4876 41.0879 63.3919 41.1891C63.0391 41.5638 62.5632 42.078 62.0381 41.9084C61.8685 41.8537 61.781 41.6787 61.7044 41.5255C61.688 41.4927 61.6716 41.4599 61.6552 41.4271L61.6032 41.3341C61.4364 41.036 61.2094 40.6257 61.1602 40.1635C61.1547 40.0869 61.1465 40.0021 61.141 39.9091C61.1219 39.5946 61.0973 39.2008 60.9578 38.9382C60.9468 38.9163 60.8976 38.8862 60.8648 38.8616C60.821 38.8343 60.7827 38.8069 60.7581 38.7741C60.7362 38.7495 60.739 38.7221 60.7636 38.6565C60.594 38.5498 59.9677 38.1861 59.4453 38.3447C59.3386 38.3775 59.1636 38.61 59.0214 38.796C58.9311 38.9136 58.8463 39.0285 58.778 39.0941C58.5893 39.2719 58.3787 39.5809 58.1544 39.9064C57.8235 40.3823 57.446 40.932 57.0358 41.2083C56.9236 41.2848 56.7842 41.3477 56.6337 41.4161C56.4505 41.4982 56.2399 41.5912 56.0375 41.7279C55.8789 41.8373 55.7284 41.9659 55.5835 42.0917C55.3619 42.2831 55.1514 42.4664 54.9161 42.5676C54.4703 42.7563 53.5103 42.7563 53.1357 42.5676C52.5722 42.2749 51.8174 40.8117 52.0307 40.21C52.0827 40.0623 52.2905 39.8818 52.4163 39.7724C52.4464 39.745 52.482 39.7149 52.4847 39.7122C52.5996 39.5208 52.6707 39.332 52.7418 39.1515C52.8266 38.9355 52.9032 38.7331 53.0427 38.5307C53.1056 38.435 53.1712 38.3693 53.2341 38.3037C53.3134 38.2216 53.39 38.1423 53.4557 38.0165C53.524 37.8825 53.6115 37.7239 53.7045 37.5543C53.9534 37.103 54.2625 36.5314 54.4156 36.0911C54.4594 35.9598 54.4813 35.8258 54.4977 35.7082C54.5141 35.6015 54.5278 35.5058 54.5551 35.4292C54.5934 35.328 54.6837 35.1639 54.7849 34.9752C54.9408 34.688 55.1377 34.3379 55.2115 34.089C55.2361 34.007 55.2334 33.8429 55.2334 33.7116C55.2334 33.5721 55.2334 33.4819 55.2471 33.4326C55.2553 33.3944 55.2908 33.3615 55.3702 33.2932C55.3784 33.2877 55.3838 33.2795 55.3893 33.274C55.4522 33.1236 55.4659 32.995 55.4796 32.8309C55.4878 32.7352 55.4987 32.6258 55.5206 32.5027C55.5343 32.4289 55.5807 32.366 55.6245 32.3086C55.6573 32.2675 55.6874 32.2238 55.6956 32.1882C55.7257 32.0405 55.712 31.9284 55.7011 31.8299C55.6929 31.7588 55.6847 31.6959 55.6956 31.6357V31.6139L55.7175 31.5975C55.723 31.5947 55.7257 31.5893 55.7312 31.5838C55.6984 31.5045 55.6901 31.4798 55.7011 31.458C55.7148 31.3732 55.7476 31.2911 55.7831 31.2036C55.8324 31.086 55.8871 30.952 55.9062 30.7797C55.9172 30.6621 55.9117 30.6019 55.9062 30.5718C55.857 30.5718 55.8953 30.4597 55.8953 30.4597C55.8953 30.4597 55.8953 30.457 55.8953 30.4542C55.898 30.4405 55.9062 30.3612 55.9062 30.3612C55.9172 30.2956 55.9308 30.1971 55.939 30.1151L55.9281 30.1233L55.939 29.9865C56.032 28.8023 55.7695 28.1705 55.1623 28.0857C53.122 27.8013 50.9887 35.008 50.5675 37.0948V37.4722C50.5374 37.6473 50.4991 37.8251 50.4608 37.9974C50.4171 38.1998 50.376 38.3912 50.3596 38.5444C50.3159 38.9109 50.346 39.2363 50.3678 39.5235C50.3924 39.8298 50.4171 40.0951 50.3569 40.3467C50.3323 40.4452 50.2283 40.5245 50.1299 40.6011C50.0752 40.6421 50.0232 40.6831 49.9986 40.716C49.9658 40.7625 49.9193 40.839 49.8701 40.9211C49.7907 41.0524 49.7032 41.2001 49.6157 41.3095C49.5473 41.3915 49.4543 41.479 49.3641 41.5611C49.2383 41.6759 49.107 41.7936 49.0714 41.8838C49.014 42.0206 49.0304 42.398 49.0441 42.7317C49.055 42.9751 49.0632 43.1993 49.0441 43.3361C49.1672 43.3662 49.3395 43.1884 49.5419 42.9696C49.8044 42.6852 50.1299 42.3296 50.5292 42.2831L50.5866 42.2776L50.6003 42.3323C50.7371 42.8602 51.1719 44.1238 52.2878 44.534C52.4081 44.5778 52.5668 44.5668 52.7473 44.5586C52.9114 44.5477 53.0946 44.5368 53.2806 44.5668C53.3408 44.5751 53.3927 44.5887 53.442 44.5969C53.5733 44.627 53.6772 44.6516 53.9151 44.6024C53.9862 44.586 54.03 44.5504 54.082 44.5067C54.1285 44.4684 54.1777 44.4246 54.2488 44.4C54.8915 44.1621 55.3264 43.8831 55.9855 43.4564L56.0758 43.399C56.1852 43.3279 56.3137 43.2787 56.4395 43.2349C56.5517 43.1939 56.6529 43.1528 56.7158 43.1064C56.7158 43.0927 56.7212 43.0708 56.724 43.0571C56.7349 42.9997 56.7404 42.9669 56.7705 42.9559C56.8115 42.9313 56.8635 42.9204 56.9182 42.9122C56.9975 42.8985 57.0768 42.8821 57.1342 42.8274C57.2217 42.7426 57.3585 42.5758 57.5117 42.3816C57.8864 41.9194 58.3486 41.3423 58.6576 41.2848C58.9886 41.2219 59.098 41.4845 59.1527 41.6103C59.1609 41.6322 59.1691 41.6513 59.1773 41.665C59.2128 41.7334 59.2976 41.8373 59.3824 41.944C59.459 42.0342 59.5328 42.1327 59.5903 42.2175C59.6778 42.3542 59.7297 42.4992 59.7817 42.6441C59.8309 42.7864 59.8802 42.9231 59.9622 43.0489C60.2904 43.5412 61.1273 44.2222 61.9697 43.9187C62.4675 43.7381 63.0993 43.2404 63.5341 42.8301C63.5533 42.8137 63.6189 42.7125 63.6599 42.6469C63.7557 42.5019 63.7666 42.4855 63.7912 42.4746C63.876 42.4281 63.9307 42.4417 63.969 42.4527C63.9936 42.4582 64.0018 42.4609 64.0292 42.4417C64.2097 42.3241 64.3437 42.1737 64.475 42.0288C64.6938 41.7853 64.9016 41.5583 65.2681 41.4954L65.3119 41.4872L65.3338 41.5255C65.4623 41.7717 65.5198 42.0616 65.5744 42.3406C65.6292 42.6195 65.6839 42.9067 65.8124 43.1583C65.8808 43.2841 66.0968 43.5248 66.3238 43.7764C66.6985 44.1922 67.0869 44.6243 67.1006 44.8759C67.1252 45.2397 66.5946 45.7101 66.1707 46.0875C66.0011 46.2297 65.8562 46.361 65.8069 46.4321C65.7823 46.4704 65.785 46.5005 65.7905 46.5388C65.796 46.5771 65.8015 46.6208 65.7768 46.6673C65.7522 46.7111 65.6839 46.774 65.5416 46.8971C65.3857 47.0311 65.1916 47.1979 65.0876 47.3347C64.3328 48.3275 63.9608 49.7469 64.1605 50.8847C64.1741 50.9531 64.1741 51.0132 64.1741 51.0707C64.1741 51.1801 64.1741 51.2676 64.2534 51.377C64.3601 51.522 65.1013 51.9021 65.29 51.9431C66.2555 52.1373 66.8353 51.8009 67.4479 51.4344C67.6066 51.3387 67.7734 51.2403 67.9457 51.15C68.6349 50.789 69.3023 50.2174 69.8219 49.5363C69.8766 49.4652 69.9423 49.3914 70.0134 49.3148C70.1474 49.1644 70.3005 49.0058 70.3334 48.8772C70.3498 48.8061 70.3443 48.7432 70.3388 48.6776C70.3306 48.5873 70.3224 48.4916 70.3716 48.3822C70.4154 48.2837 70.4592 48.1989 70.5002 48.1169C70.6561 47.8106 70.7819 47.5671 70.7135 46.96C70.6451 46.3473 70.4181 45.7183 70.0298 45.0181C70.0243 45.0127 69.997 44.9826 69.9723 44.958C69.7973 44.7747 69.6906 44.6571 69.6742 44.5805V44.5586C69.6824 44.4656 69.6988 44.3043 69.7125 44.266C69.8848 43.7518 71.9197 42.2366 72.2178 42.0206C72.2068 41.9987 72.2014 41.9741 72.2096 41.944C72.215 41.9248 72.2314 41.8975 72.267 41.8811C72.3026 41.8647 72.3573 41.8647 72.4858 41.8729C72.5323 41.8729 72.5815 41.8783 72.6007 41.8729L72.6417 41.9932L72.6554 41.9795C72.5979 42.1026 72.7921 43.2021 72.8386 43.4209C72.8468 43.4291 72.8523 43.4346 72.8578 43.4428C72.8742 43.4783 72.8632 43.5494 72.8496 43.5959C72.9426 44.1402 73.2297 44.5422 73.6181 44.6762C73.9545 44.7911 74.3183 44.6872 74.6383 44.3809C74.7148 44.307 74.8297 44.1922 74.8407 44.1785L74.8488 44.1703C75.0923 43.9597 75.7979 42.9997 75.9428 42.6742C75.9538 42.6496 75.9675 42.5539 75.9811 42.48C76.0058 42.3269 76.0222 42.2312 76.0495 42.1847C76.1425 42.0069 76.7196 41.293 76.9302 41.0934L76.9657 41.0578L77.0068 41.0852C77.2447 41.2411 77.3897 41.4407 77.5319 41.6322C77.6303 41.7662 77.7233 41.8893 77.8382 41.9905C78.3879 42.4718 79.5886 42.3706 80.1848 41.9522C80.2724 41.8893 80.4255 41.6924 80.4775 41.6212L80.4857 41.6103L80.4966 41.6048C80.6088 41.5365 80.7483 41.49 80.8713 41.4462C80.9561 41.4161 81.0382 41.3888 81.0874 41.3614C81.2378 41.2712 81.3554 41.0879 81.4703 40.9129C81.5332 40.8144 81.5934 40.7242 81.659 40.6449C81.7547 40.5272 81.8915 40.4069 82.0474 40.2784C82.2197 40.1252 82.4166 39.9529 82.5971 39.7505C82.6983 39.6329 82.8022 39.4715 82.9116 39.302C83.1195 38.9683 83.3602 38.5936 83.6802 38.4158L83.7896 38.3557L83.7759 38.4787C83.7349 38.8315 83.6528 39.529 83.6036 40.2455C83.5954 40.3631 83.5735 40.5491 83.5462 40.7625C83.4368 41.6787 83.2371 43.3771 83.6829 43.7108C83.7294 43.7436 83.8853 43.7874 83.9974 43.8175C84.0822 43.8393 84.1533 43.8612 84.1916 43.8776C84.2436 43.8995 84.2928 43.9351 84.3502 43.9734C84.4925 44.0691 84.6374 44.1675 84.7961 44.0882C84.9191 44.0253 85.0723 43.8612 85.22 43.6998C85.3048 43.6069 85.395 43.5139 85.4743 43.44C85.5318 43.3881 85.5974 43.3388 85.6603 43.2923C85.7533 43.2294 85.8518 43.1611 85.9147 43.0763C85.9284 43.0599 85.9338 43.0298 85.9393 42.997C85.9502 42.9423 85.9639 42.8739 86.0131 42.8028C86.035 42.7699 86.076 42.7426 86.1171 42.7152C86.1444 42.6988 86.1745 42.677 86.1882 42.6605C86.1936 42.6523 86.1964 42.6496 86.1991 42.6441C86.1991 42.6441 86.1936 42.6441 86.1909 42.6441C86.1909 42.6441 86.1964 42.6414 86.2046 42.6332C86.2128 42.6223 86.2155 42.6168 86.2155 42.6141C86.2155 42.6141 86.2155 42.6223 86.2155 42.625C86.221 42.6223 86.2237 42.6195 86.2319 42.6141C86.2401 42.6058 86.2429 42.6031 86.2483 42.6004L86.2319 42.5922C86.2319 42.5922 86.2429 42.5894 86.2757 42.573C86.3878 42.4937 88.1656 40.6531 88.223 40.4616C88.3051 40.1334 88.1902 39.5454 88.1546 39.3539C88.1492 39.3266 88.1546 39.2965 88.1546 39.2637L88.1355 39.2445ZM79.0881 29.8471L79.0662 29.8826L79.0553 29.9018C78.9158 30.1397 78.8392 30.3694 78.7517 30.6347C78.6943 30.8098 78.6314 30.9903 78.5466 31.1954C78.4645 31.3951 78.3743 31.5373 78.284 31.6822C78.2156 31.7944 78.15 31.901 78.0926 32.0269C78.0625 32.0898 78.0515 32.1691 78.0351 32.2566C78.016 32.3851 77.9914 32.5301 77.9093 32.6696C77.8738 32.727 77.8191 32.7571 77.7753 32.7817C77.7753 32.7817 77.7753 32.7817 77.7726 32.7817C77.7397 32.8829 77.7206 32.9704 77.7069 33.0552C77.6796 33.2111 77.6495 33.3725 77.521 33.5475C77.469 33.6186 77.3924 33.6432 77.3404 33.6569C77.3213 33.6624 77.2939 33.6733 77.2857 33.6788C77.2365 33.7554 77.2228 33.8292 77.2064 33.9249C77.1927 34.0125 77.1763 34.1137 77.1244 34.2149C77.0642 34.3325 76.9603 34.4309 76.8618 34.5239C76.7852 34.5978 76.7087 34.6743 76.6704 34.7372C76.6047 34.8494 76.5254 35.0025 76.4488 35.1502C76.3586 35.3253 76.2656 35.5085 76.1808 35.6425C76.148 35.6918 76.0878 35.7465 75.9866 35.7629C75.8526 35.968 75.5135 36.4958 75.4943 36.5341C75.4943 36.5287 75.4341 36.6572 75.4341 36.6572L75.3056 36.9143L75.2017 36.649L75.1497 36.515C74.9883 36.1129 75.281 35.3444 75.56 34.6005C75.6365 34.409 75.7131 34.2094 75.7623 34.0535L75.7952 33.7499L75.7979 33.7335C75.9073 33.3807 76.0386 33.2193 76.1699 33.0607C76.2164 33.0033 76.2656 32.9458 76.3121 32.8774C76.3531 32.8173 76.3722 32.7079 76.3887 32.593C76.4105 32.4562 76.4352 32.3004 76.5117 32.1636C76.5555 32.087 76.6239 32.0597 76.684 32.046C76.7579 31.8682 76.8536 31.7397 76.9603 31.6057C77.0286 31.5263 77.0861 31.4607 77.1353 31.3704C77.1873 31.2775 77.2502 31.1544 77.3213 31.0122C77.6386 30.3968 78.1199 29.4669 78.7161 29.084L78.7955 29.032L78.9568 28.9308L79.0061 29.2098C79.0197 29.2836 79.0608 29.6283 79.0772 29.7732C79.0772 29.7759 79.0772 29.7978 79.0772 29.7978L79.0826 29.8416L79.0881 29.8471ZM54.4348 33.285C54.4102 33.4381 54.3309 33.5776 54.2734 33.6761C54.2461 33.7226 54.2215 33.769 54.2105 33.7937C54.1695 33.9003 54.1503 34.1027 54.1312 34.2805C54.1093 34.4774 54.0902 34.6661 54.0409 34.8166C53.8522 35.3882 53.5678 35.916 53.2888 36.4247C53.1521 36.6736 53.0098 36.9335 52.8868 37.1851C52.8594 37.2425 52.8211 37.3546 52.7856 37.4476C52.7172 37.6473 52.657 37.8196 52.5722 37.9263C52.4519 38.0767 52.3042 38.115 52.2167 38.1341C52.1839 38.1423 52.1593 38.1505 52.1346 38.1587L52.0307 38.2052L51.924 38.249L51.8666 38.1505L51.8119 38.0493L51.749 37.9372L51.6068 37.6883L51.7326 37.7157L51.7435 37.691C51.7736 37.6172 51.8748 37.0729 51.9158 36.8623C51.976 36.5396 52.0307 36.236 52.0799 36.0555C52.1237 35.8887 52.2304 35.7191 52.3316 35.555C52.3999 35.4456 52.4765 35.3198 52.5011 35.2487C52.5531 35.0737 52.5668 34.915 52.5832 34.7154C52.5941 34.5868 52.6051 34.4473 52.6297 34.2696C52.7063 33.6624 53.4037 32.6149 53.8331 32.2046C53.9698 32.0733 54.0382 32.0077 54.1859 32.0624L54.3336 32.1171L54.35 32.2757H54.3445C54.3527 32.3113 54.3582 32.3496 54.3637 32.3988L54.3773 32.5109C54.4293 32.954 54.4485 33.1728 54.432 33.285H54.4348ZM68.9741 47.7805C68.8455 49.003 67.3358 50.2447 66.384 50.5374C66.3676 50.5428 66.3211 50.5702 66.2883 50.5921C66.1324 50.6905 65.8972 50.8355 65.5854 50.748C65.4842 50.7179 65.424 50.6249 65.3693 50.5428C65.3584 50.5264 65.3392 50.4991 65.3338 50.4909C64.8934 50.0806 65.1888 49.5446 65.3338 49.2875C65.3584 49.241 65.383 49.1972 65.3994 49.1617C65.5827 48.7733 65.8124 48.4806 66.0585 48.1716C66.1625 48.0376 66.2719 47.9008 66.3813 47.7531C66.4141 47.7094 66.4579 47.6164 66.5016 47.5289C66.5891 47.3456 66.6821 47.1569 66.797 47.0612C66.8353 47.0284 66.8873 47.001 66.9529 46.9654C67.0322 46.9244 67.1443 46.8642 67.1881 46.8095C67.2619 46.7166 67.3303 46.6154 67.4014 46.5087C67.5355 46.3118 67.6695 46.1176 67.8637 45.9316L67.8965 45.9015L67.9594 45.8414L68.036 45.8796L68.077 45.8961C68.5064 46.0984 68.6623 46.6072 68.7771 46.9873C68.7899 47.0293 68.7963 47.0521 68.7963 47.0557C68.81 47.094 68.8291 47.1487 68.851 47.2061C68.9194 47.3812 68.9959 47.5808 68.9768 47.7805" fill="#4FB2DD"/>
<path d="M33.2604 16.9734H40.3851V14.9741H35.7383L35.7492 0.546956H33.2713L33.2604 16.998V16.9734Z" fill="#4FB2DD"/>
<path d="M2.6256 2.65838V14.9495H5.1336C8.36638 14.9495 10.7622 12.5646 10.9017 9.21145C11.0522 5.57116 8.62347 2.72949 5.16369 2.68846L2.6256 2.65838ZM0 16.9925V0.577041H5.16369C10.0046 0.577041 13.4371 4.13528 13.5574 8.56599C13.6832 13.1252 10.5681 16.9898 5.16369 16.9898H0" fill="#4FB2DD"/>
<path d="M148.571 16.9734H150.997V4.94211L162.268 16.9761H164.078V0.541486H161.677L161.674 12.8025L150.187 0.541486H148.571V16.9734Z" fill="#4FB2DD"/>
<path d="M54.1066 16.9734H62.6152V14.9932H56.6966V9.3482H62.462V7.36259H56.6966V2.54898H62.6179V0.544221H54.1066V16.998V16.9734Z" fill="#4FB2DD"/>
<path d="M171.753 0.544221L164.877 16.9761H167.615L169.453 12.3075H175.672L177.51 16.9761H180.245L173.372 0.544221H171.753ZM170.355 10.2562L172.56 4.48536L174.764 10.2562H170.355Z" fill="#4FB2DD"/>
<path d="M100.123 0.544221L93.2417 16.9761H95.9768L97.8201 12.3075H104.034L105.88 16.9761H108.615L101.734 0.544221H100.123ZM98.7172 10.2562L100.924 4.48536L103.137 10.2562H98.7172Z" fill="#4FB2DD"/>
<path d="M140.82 0.544221H139.201L132.328 16.9761H135.063L136.901 12.3075H143.117L144.958 16.9761H147.696L140.82 0.544221ZM137.806 10.2562L140.01 4.48536L142.215 10.2562H137.806Z" fill="#4FB2DD"/>
<path d="M124.47 9.43845H126.084C127.809 9.43025 130.419 9.48768 130.419 12.1543C130.419 14.583 128.378 15.0479 125.996 15.0288H124.473V9.43845H124.47ZM121.792 16.9789H127.101C130.484 16.9789 132.916 15.8165 133.113 12.5427C133.228 10.5981 131.772 8.5359 129.798 8.06548C130.914 7.32977 131.592 6.36157 131.611 5.0433C131.669 1.23344 129.059 0.620801 126.393 0.546956H121.792V16.9816V16.9789ZM124.459 2.54351H124.869C126.847 2.48881 129.029 2.39582 129.029 4.87373C129.029 7.35165 126.986 7.37079 124.845 7.42823H124.456V2.54351" fill="#4FB2DD"/>
<path d="M112.045 9.43845H113.65C115.379 9.43025 117.994 9.48768 117.994 12.1543C117.994 14.583 115.945 15.0479 113.563 15.0288H112.048V9.43845H112.045ZM109.367 16.9789H114.671C118.056 16.9789 120.488 15.8165 120.685 12.5427C120.802 10.5981 119.339 8.5359 117.367 8.06548C118.48 7.32977 119.156 6.36157 119.178 5.0433C119.235 1.23344 116.626 0.620801 113.962 0.546956H109.367V16.9816V16.9789ZM112.034 2.54351H112.441C114.416 2.48881 116.599 2.39582 116.599 4.87373C116.599 7.35165 114.558 7.37079 112.42 7.42823H112.037V2.54351" fill="#4FB2DD"/>
<path d="M53.3763 1.85155C52.6516 1.23891 52.3616 1.07481 51.0762 0.566101C50.0287 0.150381 48.7952 -0.0164545 47.7614 0.0108955C46.4622 0.0491855 45.7074 0.235166 44.5286 0.741141C40.7844 2.32471 38.8699 5.51919 39.209 9.44666C39.5071 12.8928 41.263 15.2421 44.5286 16.6807C45.6937 17.1867 46.4404 17.3836 47.7313 17.4493C49.0441 17.5204 49.8372 17.411 51.0789 16.9816C52.0389 16.6616 52.6078 16.4373 53.3791 15.7919V13.5245C53.3791 13.5245 52.0471 14.4271 51.0789 14.769C49.8427 15.2093 49.0386 15.3816 47.7313 15.2367C46.3939 15.089 45.6089 14.7744 44.5286 14.0114C43.6315 13.3905 43.1502 12.9311 42.6196 11.9929C42.1163 11.0931 41.9878 10.4942 41.903 9.47127C41.6869 6.95234 42.4172 5.01595 44.5286 3.5035C45.6007 2.72949 46.3911 2.42043 47.7313 2.28095C49.0414 2.14693 49.84 2.33565 51.0789 2.77325C52.0416 3.11239 52.5312 3.47341 53.3791 3.99853V1.84608" fill="#4FB2DD"/>
<path d="M93.8681 4.26383C92.9053 1.85702 89.7601 0.0847407 86.3632 0.00269057C81.2952 -0.120385 77.108 3.9958 77.1873 8.88051C77.2666 13.6969 81.3746 17.5532 86.3632 17.4766C93.7778 17.3645 95.1398 11.2873 94.6503 8.57146H86.7133V10.5954H91.9754C91.6883 13.9786 89.2514 15.0726 86.3632 15.2667C82.7339 15.5129 79.8457 12.395 79.7773 8.88051C79.7035 5.29492 82.6518 2.21531 86.3632 2.24539C88.8603 2.26454 90.9608 3.70315 91.918 5.29492L93.8653 4.26383" fill="#4FB2DD"/>
<path d="M32.5821 8.79573C32.5821 6.44909 31.6713 4.30759 29.9291 2.66658C28.2006 1.0584 25.8622 0.158586 23.4499 0.158586C21.0376 0.158586 18.7156 1.0584 16.9953 2.66658C15.2531 4.30759 14.3177 6.44909 14.3177 8.79573C14.3177 11.1424 15.2531 13.2702 16.9953 14.903C18.7184 16.5221 21.0376 17.4356 23.4499 17.4356C25.8622 17.4356 28.1787 16.544 29.9291 14.903C31.6467 13.2948 32.5821 11.1451 32.5821 8.79573ZM23.4499 15.1956C21.6722 15.1956 20.0749 14.542 18.7922 13.3112C17.5341 12.0723 16.8558 10.5352 16.8558 8.79573C16.8558 7.05626 17.5314 5.47817 18.7922 4.24468C20.0284 3.02761 21.6722 2.37394 23.4499 2.37394C25.2277 2.37394 26.8468 3.02761 28.1022 4.24468C29.3657 5.45355 30.044 7.06447 30.044 8.79573C30.044 10.527 29.3657 12.0941 28.1022 13.3112C26.8249 14.542 25.2003 15.1956 23.4499 15.1956Z" fill="#4FB2DD"/>
<path d="M72.9426 15.2558C73.2926 14.9085 73.6181 14.5392 73.919 14.1016L74.0037 13.9813L73.1422 13.0705C73.1422 13.0705 72.3518 14.0633 72.1549 14.315C71.9251 14.0469 70.8339 12.7697 70.6205 12.5208C71.586 11.9054 72.0427 11.2627 72.0427 10.4613C72.0427 9.32905 71.2113 8.57146 69.9669 8.57146C68.7224 8.57146 67.8691 9.3482 67.8691 10.4613C67.8691 11.0138 68.0551 11.4788 68.4517 11.9273C68.4517 11.9273 68.5529 12.0394 68.6431 12.1434C67.4397 12.8627 66.8271 13.6914 66.8271 14.6678C66.8271 16.1283 67.9238 17.1402 69.4882 17.1402C70.4291 17.1402 71.2687 16.8011 71.9962 16.1337C72.1713 16.3361 72.7402 16.9953 72.7402 16.9953H74.4359C74.4359 16.9953 73.1203 15.4637 72.9453 15.2585L72.9426 15.2558ZM69.9669 9.75025C70.4592 9.75025 70.7627 10.032 70.7627 10.4832C70.7627 10.8798 70.5303 11.2107 70.0708 11.4815C70.0708 11.4815 69.9477 11.5499 69.8438 11.6073C69.7152 11.4596 69.4308 11.1314 69.4308 11.1314C69.2585 10.9482 69.1737 10.7348 69.1737 10.5051C69.1737 10.0538 69.4937 9.75025 69.9696 9.75025H69.9669ZM69.3105 13.1635C69.3105 13.1635 69.3652 13.128 69.4171 13.0952C69.5976 13.3057 71.0007 14.9413 71.2086 15.1874C70.5959 15.7016 70.0708 15.945 69.5347 15.945C68.7553 15.945 68.1973 15.3926 68.1973 14.635C68.1973 14.0223 68.5857 13.6504 69.3105 13.1635Z" fill="#4FB2DD"/>
</svg>
